<svg version="1.1" viewBox="0.0 0.0 960.0 720.0" fill="none" stroke="none" stroke-linecap="square" stroke-miterlimit="10" xmlns:xlink="http://www.w3.org/1999/xlink" xmlns="http://www.w3.org/2000/svg"><clipPath id="p.0"><path d="m0 0l960.0 0l0 720.0l-960.0 0l0 -720.0z" clip-rule="nonzero"/></clipPath><g clip-path="url(#p.0)"><path fill="#000000" fill-opacity="0.0" d="m0 0l960.0 0l0 720.0l-960.0 0z" fill-rule="evenodd"/><path fill="#ffffff" d="m221.6693 194.34645l516.6614 0l0 331.30713l-516.6614 0z" fill-rule="evenodd"/><path stroke="#ffffff" stroke-width="1.0" stroke-linejoin="round" stroke-linecap="butt" d="m221.6693 194.34645l516.6614 0l0 331.30713l-516.6614 0z" fill-rule="evenodd"/><path fill="#b7b7b7" d="m661.3963 480.80054l0 0c0 -15.855377 12.8533325 -28.70868 28.70868 -28.70868c15.855347 0 28.70868 12.853302 28.70868 28.70868c0 15.855347 -12.8533325 28.708649 -28.70868 28.708649c-15.855347 0 -28.70868 -12.853302 -28.70868 -28.708649z" fill-rule="evenodd"/><path fill="#929292" d="m677.9171 472.2145c0 -1.6516113 1.3388672 -2.9904785 2.9904785 -2.9904785c1.6516113 0 2.9904785 1.3388672 2.9904785 2.9904785c0 1.6516113 -1.3388672 2.9904785 -2.9904785 2.9904785c-1.6516113 0 -2.9904785 -1.3388672 -2.9904785 -2.9904785m18.394775 0c0 -1.6516113 1.3389282 -2.9904785 2.9904785 -2.9904785c1.6516113 0 2.9904785 1.3388672 2.9904785 2.9904785c0 1.6516113 -1.3388672 2.9904785 -2.9904785 2.9904785c-1.6515503 0 -2.9904785 -1.3388672 -2.9904785 -2.9904785" fill-rule="evenodd"/><path fill="#000000" fill-opacity="0.0" d="m674.5447 493.32056q15.560303 10.686523 31.084229 0" fill-rule="evenodd"/><path fill="#000000" fill-opacity="0.0" d="m661.3963 480.80054l0 0c0 -15.855377 12.8533325 -28.70868 28.70868 -28.70868c15.855347 0 28.70868 12.853302 28.70868 28.70868c0 15.855347 -12.8533325 28.708649 -28.70868 28.708649c-15.855347 0 -28.70868 -12.853302 -28.70868 -28.708649z" fill-rule="evenodd"/><path stroke="#000000" stroke-width="1.0" stroke-linejoin="round" stroke-linecap="butt" d="m677.9171 472.2145c0 -1.6516113 1.3388672 -2.9904785 2.9904785 -2.9904785c1.6516113 0 2.9904785 1.3388672 2.9904785 2.9904785c0 1.6516113 -1.3388672 2.9904785 -2.9904785 2.9904785c-1.6516113 0 -2.9904785 -1.3388672 -2.9904785 -2.9904785m18.394775 0c0 -1.6516113 1.3389282 -2.9904785 2.9904785 -2.9904785c1.6516113 0 2.9904785 1.3388672 2.9904785 2.9904785c0 1.6516113 -1.3388672 2.9904785 -2.9904785 2.9904785c-1.6515503 0 -2.9904785 -1.3388672 -2.9904785 -2.9904785" fill-rule="evenodd"/><path stroke="#000000" stroke-width="1.0" stroke-linejoin="round" stroke-linecap="butt" d="m674.5447 493.32056q15.560303 10.686523 31.084229 0" fill-rule="evenodd"/><path stroke="#000000" stroke-width="1.0" stroke-linejoin="round" stroke-linecap="butt" d="m661.3963 480.80054l0 0c0 -15.855377 12.8533325 -28.70868 28.70868 -28.70868c15.855347 0 28.70868 12.853302 28.70868 28.70868c0 15.855347 -12.8533325 28.708649 -28.70868 28.708649c-15.855347 0 -28.70868 -12.853302 -28.70868 -28.708649z" fill-rule="evenodd"/></g></svg>