<svg version="1.1" viewBox="0.0 0.0 960.0 720.0" fill="none" stroke="none" stroke-linecap="square" stroke-miterlimit="10" xmlns:xlink="http://www.w3.org/1999/xlink" xmlns="http://www.w3.org/2000/svg"><clipPath id="p.0"><path d="m0 0l960.0 0l0 720.0l-960.0 0l0 -720.0z" clip-rule="nonzero"/></clipPath><g clip-path="url(#p.0)"><path fill="#000000" fill-opacity="0.0" d="m0 0l960.0 0l0 720.0l-960.0 0z" fill-rule="evenodd"/><path fill="#000000" d="m128.91339 360.0l0 0c0 -193.89978 157.18683 -351.0866 351.0866 -351.0866l0 0c93.11395 0 182.41418 36.98938 248.25574 102.830894c65.84149 65.84151 102.83087 155.14177 102.83087 248.25572l0 0c0 193.89978 -157.18683 351.0866 -351.0866 351.0866l0 0c-193.89978 0 -351.0866 -157.18683 -351.0866 -351.0866z" fill-rule="evenodd"/><path stroke="#000000" stroke-width="1.0" stroke-linejoin="round" stroke-linecap="butt" d="m128.91339 360.0l0 0c0 -193.89978 157.18683 -351.0866 351.0866 -351.0866l0 0c93.11395 0 182.41418 36.98938 248.25574 102.830894c65.84149 65.84151 102.83087 155.14177 102.83087 248.25572l0 0c0 193.89978 -157.18683 351.0866 -351.0866 351.0866l0 0c-193.89978 0 -351.0866 -157.18683 -351.0866 -351.0866z" fill-rule="evenodd"/><path fill="#000000" fill-opacity="0.0" d="m334.8504 234.9029l290.2992 0l0 157.88977l-290.2992 0z" fill-rule="evenodd"/><path fill="#ffffff" d="m376.32877 408.77414q-12.625 0 -19.625 -6.5625q-7.0 -6.578125 -7.0 -20.578125q0 -11.78125 4.6875 -25.9375q4.703125 -14.171875 15.015625 -24.484375q10.328125 -10.328125 26.203125 -10.328125q10.234375 0 14.578125 4.4375q4.359375 4.4375 4.359375 11.265625q0 5.96875 -2.5625 9.21875q-2.546875 3.234375 -6.46875 3.234375q-2.90625 0 -5.984375 -2.046875q2.046875 -5.640625 2.046875 -10.078125q0 -3.234375 -1.203125 -5.109375q-1.1875 -1.875 -3.578125 -1.875q-5.109375 0 -10.234375 8.359375q-5.109375 8.359375 -8.359375 20.3125q-3.25 11.9375 -3.25 21.5q0 8.359375 2.90625 11.34375q2.90625 2.984375 9.390625 2.984375q9.21875 0 15.78125 -4.265625q6.578125 -4.265625 14.421875 -12.96875l5.796875 0q-18.9375 31.578125 -46.921875 31.578125zm60.578857 0q-8.1875 0 -13.828125 -3.15625q-5.625 -3.171875 -8.359375 -8.203125q-2.734375 -5.03125 -2.734375 -10.484375q0 -5.640625 2.65625 -9.8125q2.640625 -4.1875 6.390625 -6.0625q6.65625 -11.953125 11.609375 -24.15625q4.953125 -12.203125 9.390625 -26.359375l25.25 -3.421875q0.859375 21.84375 2.90625 47.28125q0.859375 10.234375 0.859375 14.84375q0 3.921875 -0.6875 6.484375q8.015625 -4.609375 12.28125 -8.53125l7.171875 0q-10.921875 12.625 -26.109375 21.328125q-4.953125 5.296875 -12.203125 7.78125q-7.25 2.46875 -14.59375 2.46875zm-5.453125 -13.484375q6.3125 0 10.578125 -3.75q4.265625 -3.765625 4.265625 -12.125q0 -5.125 -1.03125 -14.328125q-1.703125 -19.46875 -2.21875 -26.125q-4.09375 13.484375 -13.8125 32.265625q3.921875 2.046875 3.921875 5.96875q0 3.234375 -2.140625 5.796875q-2.125 2.5625 -5.375 2.5625q-3.578125 0 -4.609375 -2.21875q0 6.140625 2.46875 9.046875q2.484375 2.90625 7.953125 2.90625zm115.36258 13.484375q-10.578125 0 -16.046875 -5.03125q-5.46875 -5.046875 -5.46875 -14.4375q0 -4.09375 1.03125 -8.875l1.359375 -6.640625q0.6875 -2.90625 0.6875 -6.328125q0 -8.1875 -6.140625 -8.1875q-2.734375 0 -5.71875 1.546875q-2.984375 1.53125 -6.9062805 4.765625l-8.875 42.15625l-24.578125 0l24.75 -116.046875l25.25003 -3.40625l-12.796875 60.0625l32.9375 -25.9375l16.890625 0l-34.125 23.71875q2.5625 -0.6875 5.625 -0.6875q9.21875 0 14.0 5.640625q4.78125 5.625 4.78125 14.328125q0 3.59375 -0.6875 6.484375l-1.875 8.53125q-0.859375 3.078125 -0.859375 5.46875q0 6.3125 6.65625 6.3125q3.75 0 4.765625 -0.5q1.03125 -0.515625 1.203125 -0.515625q-0.328125 5.625 -3.15625 9.546875q-2.8125 3.921875 -6.484375 5.984375q-3.65625 2.046875 -6.21875 2.046875zm35.143433 -0.34375q-5.625 0 -9.546875 -3.921875q-3.921875 -3.9375 -3.921875 -9.5625q0 -5.640625 3.921875 -9.640625q3.921875 -4.015625 9.546875 -4.015625q5.640625 0 9.640625 4.015625q4.015625 4.0 4.015625 9.640625q0 5.625 -4.015625 9.5625q-4.0 3.921875 -9.640625 3.921875z" fill-rule="nonzero"/></g></svg>